<?xml version="1.0" encoding="UTF-8"?>
<svg id="_레이어_1" data-name="레이어 1" xmlns="http://www.w3.org/2000/svg" viewBox="0 0 512 512">
  <defs>
    <style>
      .cls-1 {
        fill: #fff;
      }
    </style>
  </defs>
  <path class="cls-1" d="m3.3,349.65l91.03-205.56c6.27-14.16,17.9-22.75,33.55-22.75h3.36c15.67,0,26.87,8.59,33.2,22.75l91.03,205.56c1.81,3.59,2.83,7.53,2.99,11.55.25,15-11.7,27.36-26.7,27.62-.15,0-.31,0-.46,0-13.41,0-22.38-7.86-27.6-19.78l-17.53-41.03h-114.91l-18.28,42.89c-4.27,10.88-14.8,18.01-26.49,17.93C11.89,388.85.02,377.02,0,362.42c0-.15,0-.31,0-.46.22-4.29,1.35-8.48,3.3-12.31Zm161.52-72.37l-36.18-86.18-36.18,86.18h72.37Z"/>
  <path class="cls-1" d="m275.21,256.76v-.75c0-74.23,55.95-135.02,136.15-135.02,39.17,0,65.66,10.45,87.29,26.47,7.06,5.44,11.19,13.84,11.2,22.75-.02,15.47-12.58,28-28.06,27.98-.1,0-.2,0-.29,0-6.15-.06-12.14-2.01-17.15-5.58-16.04-11.95-32.84-18.66-53.36-18.66-44.02,0-75.71,36.56-75.71,81.31v.75c0,44.77,30.96,82.04,75.63,82.04,24.26,0,40.3-7.46,56.7-20.52,10.94-9.82,27.77-8.91,37.59,2.03,9.82,10.94,8.91,27.77-2.03,37.59-.4.36-.81.71-1.23,1.04-23.5,20.52-51.1,32.82-92.89,32.82-76.76.02-133.83-59.23-133.83-134.25Z"/>
</svg>